<svg aria-hidden="true" style="position: absolute; width: 0; height: 0; overflow: hidden;" version="1.1" xmlns="http://www.w3.org/2000/svg" xmlns:xlink="http://www.w3.org/1999/xlink">
<defs>
<symbol id="icon-linck-whatsapp" viewBox="0 0 32 32">
<path fill="#27d045" d="M32 16c0 8.837-7.163 16-16 16s-16-7.163-16-16c0-8.837 7.163-16 16-16s16 7.163 16 16z"></path>
<path fill="none" stroke="#fff"  stroke-linejoin="miter" stroke-linecap="butt" stroke-miterlimit="4" stroke-width="2.2857" d="M24.533 15.867c0 4.639-3.761 8.4-8.4 8.4s-8.4-3.761-8.4-8.4c0-4.639 3.761-8.4 8.4-8.4s8.4 3.761 8.4 8.4z"></path>
<path fill="none" stroke="none"  stroke-linejoin="miter" stroke-linecap="butt" stroke-miterlimit="4" stroke-width="2.2857" d="M23.867 15.867c0 4.271-3.462 7.733-7.733 7.733s-7.733-3.462-7.733-7.733c0-4.271 3.462-7.733 7.733-7.733s7.733 3.462 7.733 7.733z"></path>
<path fill="#fff" d="M9.067 20.267l-1.227 4.347 4.507-1.253 0.24-1.387-2.933 0.933 0.773-2.8z"></path>
<path fill="#27d045"  d="M9.6 22.933c0-0.027 0.933-3.12 0.933-3.12l2.24 2.107z"></path>
<path fill="#fff" d="M12.791 12.035c-0.538 0.377-0.918 0.949-1.038 1.611l-0.002 0.015c-0.133 1.040 0.507 2.107 0.507 2.107 0.671 0.99 1.427 1.848 2.279 2.601l0.015 0.013c0.727 0.58 1.579 1.043 2.503 1.344l0.057 0.016c0.333 0.137 0.72 0.216 1.125 0.216 0.206 0 0.407-0.020 0.601-0.060l-0.019 0.003c0.522-0.146 0.96-0.447 1.276-0.848l0.004-0.005c0.070-0.169 0.126-0.367 0.158-0.572l0.002-0.015c0.015-0.080 0.023-0.172 0.023-0.267s-0.008-0.186-0.024-0.276l0.001 0.009c-0.027-0.187-1.947-1.067-2.133-1.013s-0.347 0.4-0.56 0.693-0.293 0.427-0.507 0.427-1.147-0.373-2.027-1.173c-0.494-0.43-0.884-0.965-1.136-1.572l-0.010-0.028s0.16-0.187 0.373-0.48c0.161-0.176 0.281-0.391 0.344-0.629l0.002-0.011c0-0.133-0.747-2.027-0.933-2.107-0.132-0.020-0.285-0.031-0.44-0.031s-0.308 0.011-0.457 0.033l0.017-0.002z"></path>
</symbol>
<symbol id="icon-mail" viewBox="0 0 32 32">
<path stroke-linejoin="miter" stroke-linecap="butt" stroke-miterlimit="4" stroke-width="0.6667" d="M5.129 23.813c0.263 0.128 0.56 0.2 0.871 0.2h20c0.312 0 0.608-0.072 0.871-0.2l-7.877-7.413-2.569 2.115c-0.114 0.095-0.262 0.152-0.424 0.152s-0.31-0.057-0.425-0.153l0.001 0.001-2.569-2.115-7.877 7.413zM4.191 22.867c0.006-0.006 0.012-0.012 0.018-0.018l0-0 7.76-7.304-7.727-6.363c-0.017-0.014-0.033-0.029-0.048-0.044l-0-0c-0.123 0.251-0.195 0.547-0.195 0.859 0 0.001 0 0.003 0 0.004v-0 12.013c0 0.307 0.067 0.595 0.191 0.853zM27.809 22.867c0.12-0.249 0.191-0.541 0.191-0.849 0-0.001 0-0.003 0-0.004v0-12.013c0-0.309-0.069-0.6-0.195-0.863-0.015 0.015-0.031 0.030-0.047 0.043l-7.728 6.364 7.779 7.323zM26.859 8.193c-0.25-0.122-0.545-0.193-0.856-0.193-0.001 0-0.002 0-0.003 0h-20c-0.307 0-0.6 0.069-0.859 0.193l10.859 8.943 10.859-8.943zM6 6.667h20c1.841 0 3.333 1.492 3.333 3.333v0 12.013c0 1.841-1.492 3.333-3.333 3.333v0h-20c-1.841 0-3.333-1.492-3.333-3.333v0-12.013c0-1.841 1.492-3.333 3.333-3.333v0z"></path>
</symbol>
<symbol id="icon-metro-modal" viewBox="0 0 32 32">
<path fill="#32c682" style="fill: var(--color3, #32c682)" d="M28.13 24.061l-6.873-17.688-0.235-0-4.976 9.755-5.155-9.838-7.059 17.772h-1.824v1.428h9.994v-1.428h-1.983l1.983-5.554 4.045 6.982 3.887-6.982 1.983 5.554h-1.983v1.428h9.915v-1.428z"></path>
</symbol>
<symbol id="icon-notar-logo-footer" viewBox="0 0 32 32">
<path fill="#fff" style="fill: var(--color2, #fff)" d="M10.725 21.281l0.022 0.016c0.097 0.075 0.196 0.146 0.298 0.215 0.336-0.551 1.114-2.43 1.307-2.888 0.234-0.554 0.478-1.107 0.779-1.628 0.117-0.202 0.243-0.398 0.38-0.587 0.001-0.001 0.002-0.003 0.004-0.006 2.463-3.935 5.575-4.855 5.926-4.947-4.188 0.962-6.97 5.761-7.312 6.379-0.023 0.043-0.036 0.065-0.036 0.065-0.57-1.055-0.389-2.298 0.353-3.357 0.057 0.142 0.128 0.283 0.213 0.418 0.030 0.049 0.063 0.098 0.098 0.146l0.018 0.025c-0.001-0.002-0.005-0.008-0.008-0.016-0.197-0.377-0.138-0.839 0.144-1.159 0.014-0.015 0.027-0.030 0.041-0.046 0.012 0.188 0.039 0.383 0.086 0.578 0.060 0.244 0.152 0.488 0.286 0.723-0.004-0.009-0.021-0.051-0.043-0.123-0.064-0.21-0.092-0.426-0.085-0.64 0.016-0.55 0.263-1.083 0.695-1.454 0.453-0.391 0.96-0.77 1.498-1.132l-0.026 0.565-0.028 0.631c0.061-0.302 0.158-0.571 0.287-0.819l-0.008 0.017c0.274-0.538 0.703-0.992 1.24-1.294 0.022-0.013 0.044-0.025 0.068-0.039 0.416-0.232 0.843-0.423 1.273-0.578-0.148 0.189-0.281 0.402-0.384 0.639-0.033 0.075-0.062 0.153-0.089 0.234 0 0 0.034-0.074 0.109-0.188 0.018-0.027 0.035-0.053 0.054-0.078 0.334-0.47 0.835-0.794 1.398-0.926 2.752-0.641 5.306-0.050 5.345-0.041h-0.002c-0.040-0.001-0.55 0.020-1.104 0.192-0.173 0.053-0.349 0.12-0.516 0.207-0.77 0.396-1.064 0.535-1.856 0.498 0.744 0.287 1.153 0.189 1.166 0.186-0.095 0.061-0.183 0.119-0.269 0.179-0.079 0.055-0.154 0.109-0.227 0.162-0.793 0.591-1.251 1.173-2.011 1.997-0.387 0.419-1.341 1.027-2.162 1.073l0.772 0.034-0.006 0.008c-0.096 0.119-0.202 0.228-0.319 0.325-0.013 0.011-0.026 0.021-0.039 0.033-0.323 0.259-0.724 0.433-1.162 0.483l-0.010 0.001-0.467 0.051 1.261 0.055c-0.051 0.068-0.102 0.134-0.151 0.2-0.043 0.057-0.085 0.113-0.127 0.168-0.047 0.062-0.093 0.124-0.138 0.185-0.578 0.768-1.53 1.168-2.481 1.022-0.217-0.034-0.347-0.081-0.347-0.081 0.639 0.325 1.327 0.345 1.884 0.271-0.027 0.032-0.053 0.062-0.078 0.090-0.121 0.137-0.231 0.25-0.331 0.333-0.035 0.029-0.069 0.056-0.102 0.077-0.753 0.514-1.542 0.64-2.156 0.633-0.437-0.005-0.835 0.25-1.020 0.646-0.28 0.604-0.807 1.794-1.073 2.815 0.109 0.061 0.218 0.118 0.329 0.172 0.851 0.422 1.853 0.669 2.912 0.669 0.003 0 0.005 0 0.008 0h-0c3.693 0 6.686-2.993 6.686-6.686 0-1.059-0.248-2.099-0.731-3.042-0.003-0.005-0.004-0.011-0.004-0.017 0-0.010 0.004-0.019 0.010-0.026l-0 0c0.003-0.004 0.007-0.008 0.011-0.012 0.008-0.009 0.021-0.014 0.034-0.012 0.013 0.001 0.023 0.009 0.029 0.021 0.492 0.958 0.744 2.013 0.744 3.089 0 3.743-3.035 6.778-6.778 6.778-0.002 0-0.005 0-0.007 0-1.685 0-3.226-0.617-4.409-1.637l0.009 0.007c-1.509-1.292-2.371-3.163-2.371-5.15 0-3.743 3.034-6.778 6.778-6.778 1.098 0 2.175 0.263 3.147 0.773 0.014 0.007 0.021 0.021 0.021 0.036-0.001 0.015-0.011 0.028-0.024 0.034l-0 0c-0.006 0.002-0.013 0.005-0.019 0.007-0.004 0.002-0.009 0.002-0.013 0.002-0.007 0-0.013-0.002-0.018-0.005l0 0c-0.956-0.5-2.013-0.757-3.093-0.757-3.693 0-6.686 2.993-6.686 6.686 0 2.078 0.958 4.023 2.601 5.293 0.001 0.006 0.002 0.007 0.004 0.008zM10.66 21.691l0.006 0.005c0.245 0.18 0.524 0.356 0.816 0.513l0.038 0.019 0.005 0.002c0.001 0 0.002 0.001 0.004 0.002 1.013 0.533 2.134 0.807 3.278 0.807 3.895 0 7.053-3.158 7.053-7.053 0-1.162-0.283-2.301-0.832-3.325-0.003-0.005-0.005-0.012-0.005-0.018 0-0.010 0.004-0.019 0.011-0.026v0c0.070-0.074 0.14-0.145 0.213-0.216 0.009-0.009 0.020-0.013 0.033-0.011s0.022 0.008 0.028 0.020c0.606 1.098 0.919 2.324 0.919 3.577 0 4.098-3.321 7.42-7.42 7.42-0.961 0-1.912-0.185-2.803-0.548l-0.049-0.020c-0.001 0-0.002-0.001-0.004-0.001l-0.018-0.007-0.028-0.012c-0.046-0.020-0.091-0.040-0.135-0.060l-0.030-0.014c-0.044-0.020-0.089-0.041-0.132-0.062l-0.033-0.016c-0.042-0.020-0.084-0.041-0.125-0.062l-0.039-0.020-0.119-0.063c-0.014-0.007-0.028-0.015-0.041-0.022l-0.112-0.063c-0.015-0.009-0.032-0.018-0.047-0.027-0.035-0.021-0.070-0.041-0.105-0.062-0.018-0.011-0.034-0.021-0.051-0.032-0.033-0.020-0.065-0.041-0.099-0.062-0.019-0.012-0.036-0.023-0.055-0.035-0.030-0.020-0.062-0.040-0.092-0.061-0.020-0.013-0.040-0.027-0.060-0.040-0.029-0.020-0.058-0.040-0.086-0.060-0.021-0.015-0.042-0.029-0.063-0.044-0.027-0.019-0.053-0.039-0.079-0.058-1.898-1.404-3.012-3.608-3.012-5.969 0-4.098 3.321-7.42 7.42-7.42 1.419 0 2.799 0.402 3.994 1.167 0.013 0.008 0.019 0.021 0.018 0.036s-0.011 0.027-0.025 0.033c-0.105 0.042-0.208 0.090-0.307 0.145-0.013 0.007-0.027 0.007-0.039-0.001-1.101-0.666-2.356-1.013-3.643-1.013-3.895 0-7.053 3.158-7.053 7.053 0 2.262 1.077 4.371 2.903 5.703 0-0.002 0.001-0.001 0.002 0z"></path>
</symbol>
<symbol id="icon-phone" viewBox="0 0 32 32">
<path  stroke-width="0.2" d="M21.796 28.129c-1.033-0.008-2.032-0.141-2.986-0.384l0.086 0.019c-3.277-0.791-6.651-2.796-9.5-5.648s-4.857-6.226-5.647-9.5c-0.833-3.444-0.239-6.39 1.67-8.299l0.545-0.545c0.477-0.476 1.136-0.771 1.863-0.771s1.386 0.294 1.863 0.771l3.132 3.131c0.476 0.477 0.771 1.136 0.771 1.863s-0.295 1.386-0.771 1.863l-1.85 1.849c0.887 1.556 2.093 3.114 3.519 4.539s2.984 2.633 4.54 3.519l1.849-1.85c0.477-0.477 1.136-0.772 1.863-0.772s1.386 0.295 1.863 0.772l3.131 3.131c0.477 0.477 0.771 1.135 0.771 1.863s-0.295 1.386-0.771 1.863v0l-0.546 0.545c-1.346 1.348-3.208 2.039-5.396 2.039zM7.826 4.875c-0.001 0-0.002 0-0.004 0-0.208 0-0.397 0.085-0.533 0.222l-0 0-0.546 0.545c-1.429 1.429-1.847 3.75-1.176 6.531 0.711 2.946 2.54 6.006 5.151 8.616s5.671 4.438 8.617 5.151c2.781 0.671 5.101 0.254 6.53-1.176l0.545-0.545c0.137-0.137 0.222-0.327 0.222-0.537s-0.085-0.4-0.222-0.537l-3.131-3.131c-0.137-0.137-0.327-0.222-0.537-0.222s-0.4 0.085-0.537 0.222l-2.344 2.344c-0.17 0.17-0.404 0.275-0.663 0.275-0.157 0-0.306-0.039-0.436-0.107l0.005 0.002c-1.922-0.994-3.859-2.441-5.603-4.184s-3.188-3.68-4.184-5.602c-0.066-0.125-0.105-0.274-0.105-0.431 0-0.259 0.105-0.493 0.274-0.663v0l2.345-2.344c0.137-0.137 0.222-0.327 0.222-0.537s-0.085-0.4-0.222-0.537l-3.131-3.132c-0.137-0.137-0.326-0.223-0.535-0.223-0.001 0-0.002 0-0.003 0h0z"></path>
<path  stroke-width="0.2" d="M22.797 16.858c-0.518 0-0.938-0.42-0.938-0.938v0c-0.004-3.424-2.779-6.2-6.203-6.204h-0c-0.518 0-0.938-0.42-0.938-0.938s0.42-0.938 0.938-0.938v0c4.454 0 8.078 3.625 8.078 8.079 0 0.518-0.42 0.938-0.938 0.938v0z"></path>
<path  stroke-width="0.2" d="M26.759 16.858c-0.518 0-0.938-0.42-0.938-0.938v0c0-5.606-4.563-10.166-10.166-10.166-0.518 0-0.938-0.42-0.938-0.938s0.42-0.938 0.938-0.938v0c6.639 0 12.041 5.402 12.041 12.041 0 0.518-0.42 0.938-0.938 0.938v0z"></path>
</symbol>
<symbol id="icon-linck-phone" viewBox="0 0 32 32">
<path fill="#37c837"  d="M31.894 16c0 0.034 0 0.074 0 0.114 0 8.778-7.116 15.894-15.894 15.894s-15.894-7.116-15.894-15.894c0-0.040 0-0.080 0-0.12l-0 0.006c-0-0.034-0-0.074-0-0.114 0-8.778 7.116-15.894 15.894-15.894s15.894 7.116 15.894 15.894c0 0.040-0 0.080-0 0.12l0-0.006z"></path>
<path fill="#afe9af"  d="M31.894 16c0 0.034 0 0.074 0 0.114 0 8.778-7.116 15.894-15.894 15.894s-15.894-7.116-15.894-15.894c0-0.040 0-0.080 0-0.12l-0 0.006c-0-0.034-0-0.074-0-0.114 0-8.778 7.116-15.894 15.894-15.894s15.894 7.116 15.894 15.894c0 0.040-0 0.080-0 0.12l0-0.006z"></path>
<path fill="rgb(10, 201, 22)" d="M31.894 16c0 0.034 0 0.074 0 0.114 0 8.778-7.116 15.894-15.894 15.894s-15.894-7.116-15.894-15.894c0-0.040 0-0.080 0-0.12l-0 0.006c-0-0.034-0-0.074-0-0.114 0-8.778 7.116-15.894 15.894-15.894s15.894 7.116 15.894 15.894c0 0.040-0 0.080-0 0.12l0-0.006z"></path>
<path fill="#fff" d="M20.534 26.153c0.9-0.28 1.882-0.661 2.213-0.858 0.222-0.132 0.253-0.177 0.177-0.251-0.557-0.539-4.475-3.972-4.51-3.951-0.025 0.016-0.089 0.26-0.142 0.544-0.104 0.56-0.203 0.688-0.528 0.687-0.268 0-0.445-0.15-0.701-0.596-0.112-0.194-0.293-0.468-0.402-0.608s-0.33-0.49-0.491-0.777-0.443-0.761-0.627-1.052c-0.423-0.668-0.915-1.482-1.101-1.822-0.079-0.144-0.273-0.437-0.432-0.652s-0.361-0.532-0.45-0.706c-0.089-0.174-0.343-0.587-0.565-0.917s-0.488-0.768-0.593-0.974c-0.104-0.205-0.295-0.539-0.424-0.742-0.298-0.466-0.644-1.159-0.704-1.407-0.036-0.151-0.006-0.229 0.149-0.374 0.208-0.196 0.222-0.196 0.885 0.004 0.224 0.068 0.422 0.108 0.44 0.091 0.032-0.032-1.485-5.913-1.54-5.967-0.040-0.040-1.816 1.452-1.816 1.525 0 0.033-0.155 0.214-0.344 0.402s-0.457 0.522-0.596 0.742c-0.219 0.347-0.263 0.493-0.331 1.095-0.215 1.911 0.289 4.737 1.246 6.982 0.515 1.209 0.824 1.815 1.19 2.331 0.165 0.233 0.388 0.599 0.495 0.813 0.573 1.148 2.378 3.242 3.638 4.218 0.869 0.674 2.714 1.88 3.141 2.052 1.247 0.505 1.576 0.525 2.723 0.168zM23.714 23.987c0.27-0.664 0.278-0.703 0.159-0.815-0.1-0.095-3.266-2.851-3.703-3.224-0.102-0.087-0.205-0.055-0.84 0.264-0.609 0.306-0.708 0.378-0.626 0.458 0.301 0.29 4.688 4.053 4.705 4.036 0.011-0.011 0.148-0.334 0.304-0.718zM13.986 11.282c0.3-0.228 0.544-0.419 0.543-0.424-0.081-0.379-1.265-5.009-1.286-5.029-0.041-0.041-1.552-0.253-1.583-0.222-0.019 0.019 0.396 1.623 1.535 5.933 0.081 0.305 0.031 0.322 0.791-0.257z"></path>
</symbol>
<symbol id="icon-linck-telegram" viewBox="0 0 32 32">
<path fill="#1d93d2" d="M32 16c0 8.837-7.163 16-16 16s-16-7.163-16-16c0-8.837 7.163-16 16-16s16 7.163 16 16z"></path>
<path fill="#c8daea" d="M10.831 17.17l1.898 5.254s0.237 0.492 0.491 0.492 4.034-3.932 4.034-3.932l4.203-8.119-10.559 4.949z"></path>
<path fill="#a9c6d8" d="M13.347 18.517l-0.364 3.873s-0.153 1.187 1.034 0 2.322-2.102 2.322-2.102z"></path>
<path fill="#fff" d="M10.865 17.357l-3.905-1.272s-0.467-0.189-0.316-0.619c0.031-0.089 0.093-0.164 0.28-0.293 0.865-0.603 16.014-6.048 16.014-6.048s0.428-0.144 0.68-0.048c0.127 0.040 0.222 0.143 0.251 0.272l0 0.002c0.022 0.088 0.035 0.189 0.035 0.293 0 0.018-0 0.036-0.001 0.054l0-0.003c-0.001 0.1-0.013 0.193-0.023 0.339-0.092 1.489-2.853 12.599-2.853 12.599s-0.165 0.65-0.757 0.672c-0.010 0-0.023 0.001-0.035 0.001-0.294 0-0.56-0.117-0.755-0.306l0 0c-1.161-0.999-5.176-3.697-6.063-4.29-0.040-0.027-0.067-0.070-0.073-0.119l-0-0.001c-0.012-0.063 0.056-0.14 0.056-0.14s6.99-6.213 7.176-6.866c0.014-0.050-0.040-0.075-0.113-0.053-0.464 0.171-8.513 5.253-9.401 5.814-0.037 0.012-0.080 0.018-0.124 0.018-0.026 0-0.051-0.002-0.076-0.007l0.003 0z"></path>
</symbol>
<symbol id="icon-linck-viber" viewBox="0 0 32 32">
<path fill="#7d3daf" style="fill: var(--color10, #7d3daf)" d="M7.183 0h17.635c3.967 0 7.183 3.216 7.183 7.183v17.635c0 3.967-3.216 7.183-7.183 7.183h-17.635c-3.967 0-7.183-3.216-7.183-7.183v-17.635c0-3.967 3.216-7.183 7.183-7.183z"></path>
<path fill="#fff" style="fill: var(--color2, #fff)" d="M24.197 11.395c-0.624-1.864-2.097-3.29-3.948-3.836l-0.042-0.011c-1.256-0.253-2.701-0.397-4.179-0.397s-2.922 0.145-4.319 0.421l0.141-0.023c-1.929 0.523-3.442 1.948-4.078 3.782l-0.013 0.042c-0.244 1.058-0.383 2.272-0.383 3.519s0.14 2.462 0.404 3.629l-0.021-0.109c0.602 1.792 1.981 3.179 3.727 3.778l0.042 0.013v1.873c0.001 0.416 0.338 0.752 0.754 0.752 0.213 0 0.406-0.089 0.543-0.231l0-0 1.895-1.962h1.23c1.479-0.001 2.923-0.146 4.32-0.422l-0.141 0.023c1.893-0.556 3.367-1.983 3.978-3.804l0.012-0.042c0.266-1.104 0.418-2.371 0.418-3.674 0-1.175-0.124-2.322-0.36-3.427l0.019 0.107zM22.7 18.045c-0.479 1.288-1.503 2.276-2.784 2.696l-0.031 0.009c-1.16 0.231-2.493 0.363-3.857 0.363-0.203 0-0.405-0.003-0.607-0.009l0.030 0.001c-0.011-0.005-0.025-0.008-0.039-0.008s-0.027 0.003-0.039 0.008l0.001-0-1.397 1.507-1.474 1.507c-0.032 0.030-0.075 0.049-0.122 0.049-0.096 0-0.174-0.076-0.177-0.17v-3.093c-0.004-0.050-0.040-0.090-0.088-0.1l-0.001-0c-1.312-0.429-2.336-1.416-2.805-2.674l-0.010-0.031c-0.219-0.956-0.345-2.054-0.345-3.181s0.126-2.225 0.364-3.28l-0.019 0.099c0.479-1.288 1.503-2.276 2.784-2.696l0.031-0.009c1.166-0.234 2.507-0.367 3.879-0.367s2.713 0.134 4.010 0.389l-0.131-0.021c1.312 0.429 2.336 1.416 2.805 2.674l0.010 0.031c0.223 0.964 0.351 2.070 0.351 3.206 0 1.118-0.124 2.207-0.359 3.255l0.019-0.099z"></path>
<path fill="#fff" style="fill: var(--color2, #fff)" d="M19.752 17.557c-0.212-0.179-0.447-0.357-0.691-0.524l-0.030-0.019c-0.255-0.177-0.499-0.355-0.765-0.521-0.111-0.084-0.252-0.134-0.405-0.134s-0.293 0.050-0.406 0.136l0.002-0.001c-0.244 0.2-0.366 0.587-0.709 0.632-0.009 0-0.019 0-0.029 0-0.201 0-0.39-0.054-0.553-0.147l0.005 0.003c-1.062-0.476-1.864-1.369-2.209-2.466l-0.008-0.028c-0.033-0.065-0.052-0.141-0.052-0.222s0.019-0.157 0.053-0.225l-0.001 0.003c0.049-0.073 0.108-0.136 0.175-0.187l0.002-0.001 0.233-0.177c0.188-0.132 0.31-0.348 0.31-0.592 0-0.142-0.041-0.275-0.112-0.386l0.002 0.003c-0.336-0.57-0.703-1.063-1.115-1.514l0.006 0.007c-0.102-0.138-0.264-0.227-0.447-0.227-0.092 0-0.178 0.022-0.254 0.062l0.003-0.001c-0.341 0.161-0.629 0.382-0.862 0.651l-0.003 0.003c-0.227 0.204-0.369 0.498-0.369 0.826 0 0.1 0.013 0.198 0.038 0.29l-0.002-0.008c0.177 0.432 0.355 0.865 0.554 1.286 0.452 0.939 0.988 1.749 1.619 2.474l-0.011-0.013c1.142 1.22 2.547 2.179 4.125 2.789l0.076 0.026c0.155 0.067 0.321 0.1 0.488 0.155 0.17-0.038 0.318-0.088 0.459-0.15l-0.016 0.006c0.455-0.251 0.811-0.632 1.025-1.094l0.006-0.015c0.042-0.077 0.067-0.169 0.067-0.267 0-0.173-0.077-0.327-0.199-0.431l-0.001-0.001zM16.006 10.519h-0.122c-0.001 0-0.001 0-0.002 0-0.141 0-0.255 0.114-0.255 0.255 0 0.012 0.001 0.023 0.002 0.035l-0-0.001c0 0.188 0.222 0.188 0.377 0.211s0.477 0 0.698 0.078c1.555 0.297 2.752 1.532 2.99 3.083l0.003 0.021c0 0.288 0.055 0.587 0.078 0.887s0.089 0.288 0.255 0.288c0.132-0.004 0.237-0.112 0.237-0.244 0-0.016-0.002-0.031-0.004-0.046l0 0.002c0-0.355 0-0.709-0.111-1.108-0.374-1.978-2.087-3.454-4.145-3.458h-0z"></path>
<path fill="#fff" style="fill: var(--color2, #fff)" d="M18.677 14.576c-0.005 0.030-0.008 0.065-0.008 0.1s0.003 0.070 0.008 0.103l-0-0.004c0.031 0.095 0.119 0.162 0.222 0.162s0.191-0.067 0.221-0.16l0-0.002c0.002-0.022 0.003-0.047 0.003-0.072s-0.001-0.050-0.003-0.075l0 0.003v-0.488c-0.112-0.94-0.684-1.725-1.481-2.132l-0.016-0.007c-0.396-0.207-0.863-0.336-1.357-0.354l-0.006-0c-0.007-0.001-0.014-0.001-0.022-0.001-0.122 0-0.222 0.099-0.222 0.222 0 0 0 0.001 0 0.001v-0c-0.002 0.010-0.003 0.022-0.003 0.033 0 0.119 0.094 0.217 0.213 0.222h0l0.399 0.066c0.294 0.047 0.559 0.132 0.804 0.251l-0.017-0.007c0.416 0.209 0.752 0.523 0.981 0.909l0.006 0.011c0.175 0.334 0.278 0.73 0.278 1.15 0 0.024-0 0.049-0.001 0.073l0-0.004z"></path>
<path fill="#fff" style="fill: var(--color2, #fff)" d="M18.056 14.409c0.005-0.030 0.008-0.065 0.008-0.1s-0.003-0.070-0.008-0.103l0 0.004c0-0.003 0-0.007 0-0.011 0-0.79-0.64-1.43-1.43-1.43 0 0-0 0-0 0v0c-0.005-0-0.011-0.001-0.017-0.001-0.121 0-0.223 0.085-0.249 0.198l-0 0.002c-0.003 0.014-0.005 0.031-0.005 0.048 0 0.115 0.083 0.21 0.192 0.229l0.001 0c0.122 0 0.255 0 0.388 0.055 0.106 0.030 0.198 0.076 0.28 0.135l-0.003-0.002c0.172 0.133 0.295 0.321 0.342 0.537l0.001 0.006c0.003 0.050 0.005 0.108 0.005 0.166s-0.002 0.117-0.006 0.174l0-0.008c0 0 0 0 0 0 0 0.141 0.114 0.255 0.255 0.255 0.004 0 0.008-0 0.012-0l-0.001 0c0.009 0.001 0.019 0.002 0.029 0.002 0.097 0 0.179-0.066 0.203-0.156l0-0.001z"></path>
</symbol>
<symbol id="icon-linck-mail" viewBox="0 0 32 32">
<path fill="#3498db" style="fill: var(--color11, #3498db)" d="M32 16c0 8.837-7.163 16-16 16s-16-7.163-16-16c0-8.837 7.163-16 16-16s16 7.163 16 16z"></path>
<path fill="#fff" style="fill: var(--color2, #fff)" d="M16 17.863l9.25-8.031h-18.5l9.25 8.031zM13.5 16.988l2.5 2.038 2.444-2.038 6.75 5.819h-18.444l6.75-5.819zM6.169 22.169v-11.694l6.75 5.819-6.75 5.875zM25.831 22.169v-11.694l-6.75 5.819 6.75 5.875z"></path>
</symbol>
<symbol id="icon-check" viewBox="0 0 32 32">
<path d="M27 4l-15 15-7-7-5 5 12 12 20-20z"></path>
</symbol>
<symbol id="icon-switch" viewBox="0 0 32 32">
<path d="M20 4.581v4.249c1.131 0.494 2.172 1.2 3.071 2.099 1.889 1.889 2.929 4.4 2.929 7.071s-1.040 5.182-2.929 7.071c-1.889 1.889-4.4 2.929-7.071 2.929s-5.182-1.040-7.071-2.929c-1.889-1.889-2.929-4.4-2.929-7.071s1.040-5.182 2.929-7.071c0.899-0.899 1.94-1.606 3.071-2.099v-4.249c-5.783 1.721-10 7.077-10 13.419 0 7.732 6.268 14 14 14s14-6.268 14-14c0-6.342-4.217-11.698-10-13.419zM14 0h4v16h-4z"></path>
</symbol>
<symbol id="icon-calendar" viewBox="0 0 32 32">
<path d="M10 12h4v4h-4zM16 12h4v4h-4zM22 12h4v4h-4zM4 24h4v4h-4zM10 24h4v4h-4zM16 24h4v4h-4zM10 18h4v4h-4zM16 18h4v4h-4zM22 18h4v4h-4zM4 18h4v4h-4zM26 0v2h-4v-2h-14v2h-4v-2h-4v32h30v-32h-4zM28 30h-26v-22h26v22z"></path>
</symbol>
<symbol id="icon-point" viewBox="0 0 32 32">
<path fill="none" stroke-linejoin="miter" stroke-linecap="butt" stroke-miterlimit="4" stroke-width="2" d="M26.5 10.95c0 6.75-8.1 20.55-10.5 20.55-2.45 0-10.5-13.8-10.5-20.55 0-5.8 4.7-10.45 10.5-10.45s10.5 4.7 10.5 10.45z"></path>
<path fill="none" stroke-linejoin="miter" stroke-linecap="butt" stroke-miterlimit="4" stroke-width="2" d="M20 10.5c0 2.209-1.791 4-4 4s-4-1.791-4-4c0-2.209 1.791-4 4-4s4 1.791 4 4z"></path>
</symbol>
<symbol id="icon-stopwatch" viewBox="0 0 32 32">
<path d="M16 6.038v-2.038h4v-2c0-1.105-0.895-2-2-2h-6c-1.105 0-2 0.895-2 2v2h4v2.038c-6.712 0.511-12 6.119-12 12.962 0 7.18 5.82 13 13 13s13-5.82 13-13c0-6.843-5.288-12.451-12-12.962zM22.071 26.071c-1.889 1.889-4.4 2.929-7.071 2.929s-5.182-1.040-7.071-2.929c-1.889-1.889-2.929-4.4-2.929-7.071s1.040-5.182 2.929-7.071c1.814-1.814 4.201-2.844 6.754-2.923l-0.677 9.813c-0.058 0.822 0.389 1.181 0.995 1.181s1.053-0.36 0.995-1.181l-0.677-9.813c2.552 0.079 4.94 1.11 6.754 2.923 1.889 1.889 2.929 4.4 2.929 7.071s-1.040 5.182-2.929 7.071z"></path>
</symbol>
<symbol id="icon-quill" viewBox="0 0 32 32">
<path d="M0 32c4-12 14.469-32 32-32-8.219 6.594-12 22-18 22s-6 0-6 0l-6 10h-2z"></path>
</symbol>

</defs>
</svg>
